<?xml version="1.0" encoding="UTF-8" standalone="no"?>
<!DOCTYPE svg PUBLIC "-//W3C//DTD SVG 1.1//EN"
 "http://www.w3.org/Graphics/SVG/1.1/DTD/svg11.dtd">
<!-- Generated by graphviz version 2.43.0 (0)
 -->
<!-- Title: snakemake_dag Pages: 1 -->
<svg width="570pt" height="260pt"
 viewBox="0.00 0.00 569.50 260.00" xmlns="http://www.w3.org/2000/svg" xmlns:xlink="http://www.w3.org/1999/xlink">
<g id="graph0" class="graph" transform="scale(1 1) rotate(0) translate(4 256)">
<title>snakemake_dag</title>
<polygon fill="white" stroke="transparent" points="-4,4 -4,-256 565.5,-256 565.5,4 -4,4"/>
<!-- 0 -->
<g id="node1" class="node">
<title>0</title>
<path fill="none" stroke="#d85656" stroke-width="2" d="M242.5,-36C242.5,-36 212.5,-36 212.5,-36 206.5,-36 200.5,-30 200.5,-24 200.5,-24 200.5,-12 200.5,-12 200.5,-6 206.5,0 212.5,0 212.5,0 242.5,0 242.5,0 248.5,0 254.5,-6 254.5,-12 254.5,-12 254.5,-24 254.5,-24 254.5,-30 248.5,-36 242.5,-36"/>
<text text-anchor="middle" x="227.5" y="-15.5" font-family="sans" font-size="10.00">all</text>
</g>
<!-- 1 -->
<g id="node2" class="node">
<title>1</title>
<path fill="none" stroke="#d8ac56" stroke-width="2" d="M140,-108C140,-108 79,-108 79,-108 73,-108 67,-102 67,-96 67,-96 67,-84 67,-84 67,-78 73,-72 79,-72 79,-72 140,-72 140,-72 146,-72 152,-78 152,-84 152,-84 152,-96 152,-96 152,-102 146,-108 140,-108"/>
<text text-anchor="middle" x="109.5" y="-87.5" font-family="sans" font-size="10.00">cropped_niftis</text>
</g>
<!-- 1&#45;&gt;0 -->
<g id="edge1" class="edge">
<title>1&#45;&gt;0</title>
<path fill="none" stroke="grey" stroke-width="2" d="M138.37,-71.88C154.26,-62.45 174.13,-50.66 191.08,-40.61"/>
<polygon fill="grey" stroke="grey" stroke-width="2" points="193.33,-43.34 200.15,-35.23 189.76,-37.32 193.33,-43.34"/>
</g>
<!-- 2 -->
<g id="node3" class="node">
<title>2</title>
<path fill="none" stroke="#56d8a9" stroke-width="2" d="M127,-180C127,-180 62,-180 62,-180 56,-180 50,-174 50,-168 50,-168 50,-156 50,-156 50,-150 56,-144 62,-144 62,-144 127,-144 127,-144 133,-144 139,-150 139,-156 139,-156 139,-168 139,-168 139,-174 133,-180 127,-180"/>
<text text-anchor="middle" x="94.5" y="-159.5" font-family="sans" font-size="10.00">generate_niftis</text>
</g>
<!-- 2&#45;&gt;1 -->
<g id="edge4" class="edge">
<title>2&#45;&gt;1</title>
<path fill="none" stroke="grey" stroke-width="2" d="M98.21,-143.7C99.86,-135.98 101.85,-126.71 103.69,-118.11"/>
<polygon fill="grey" stroke="grey" stroke-width="2" points="107.16,-118.62 105.83,-108.1 100.32,-117.15 107.16,-118.62"/>
</g>
<!-- 3 -->
<g id="node4" class="node">
<title>3</title>
<path fill="none" stroke="#56a9d8" stroke-width="2" d="M123,-252C123,-252 12,-252 12,-252 6,-252 0,-246 0,-240 0,-240 0,-228 0,-228 0,-222 6,-216 12,-216 12,-216 123,-216 123,-216 129,-216 135,-222 135,-228 135,-228 135,-240 135,-240 135,-246 129,-252 123,-252"/>
<text text-anchor="middle" x="67.5" y="-237" font-family="sans" font-size="10.00">index_and_filter_dicoms</text>
<text text-anchor="middle" x="67.5" y="-226" font-family="sans" font-size="10.00">DATASET_NAME: HNSCC</text>
</g>
<!-- 3&#45;&gt;2 -->
<g id="edge5" class="edge">
<title>3&#45;&gt;2</title>
<path fill="none" stroke="grey" stroke-width="2" d="M74.17,-215.7C77.21,-207.81 80.88,-198.3 84.26,-189.55"/>
<polygon fill="grey" stroke="grey" stroke-width="2" points="87.57,-190.69 87.9,-180.1 81.04,-188.17 87.57,-190.69"/>
</g>
<!-- 4 -->
<g id="node5" class="node">
<title>4</title>
<path fill="none" stroke="#d8ac56" stroke-width="2" d="M258,-108C258,-108 197,-108 197,-108 191,-108 185,-102 185,-96 185,-96 185,-84 185,-84 185,-78 191,-72 197,-72 197,-72 258,-72 258,-72 264,-72 270,-78 270,-84 270,-84 270,-96 270,-96 270,-102 264,-108 258,-108"/>
<text text-anchor="middle" x="227.5" y="-87.5" font-family="sans" font-size="10.00">cropped_niftis</text>
</g>
<!-- 4&#45;&gt;0 -->
<g id="edge2" class="edge">
<title>4&#45;&gt;0</title>
<path fill="none" stroke="grey" stroke-width="2" d="M227.5,-71.7C227.5,-63.98 227.5,-54.71 227.5,-46.11"/>
<polygon fill="grey" stroke="grey" stroke-width="2" points="231,-46.1 227.5,-36.1 224,-46.1 231,-46.1"/>
</g>
<!-- 5 -->
<g id="node6" class="node">
<title>5</title>
<path fill="none" stroke="#56d8a9" stroke-width="2" d="M260,-180C260,-180 195,-180 195,-180 189,-180 183,-174 183,-168 183,-168 183,-156 183,-156 183,-150 189,-144 195,-144 195,-144 260,-144 260,-144 266,-144 272,-150 272,-156 272,-156 272,-168 272,-168 272,-174 266,-180 260,-180"/>
<text text-anchor="middle" x="227.5" y="-159.5" font-family="sans" font-size="10.00">generate_niftis</text>
</g>
<!-- 5&#45;&gt;4 -->
<g id="edge6" class="edge">
<title>5&#45;&gt;4</title>
<path fill="none" stroke="grey" stroke-width="2" d="M227.5,-143.7C227.5,-135.98 227.5,-126.71 227.5,-118.11"/>
<polygon fill="grey" stroke="grey" stroke-width="2" points="231,-118.1 227.5,-108.1 224,-118.1 231,-118.1"/>
</g>
<!-- 6 -->
<g id="node7" class="node">
<title>6</title>
<path fill="none" stroke="#56a9d8" stroke-width="2" d="M290,-252C290,-252 165,-252 165,-252 159,-252 153,-246 153,-240 153,-240 153,-228 153,-228 153,-222 159,-216 165,-216 165,-216 290,-216 290,-216 296,-216 302,-222 302,-228 302,-228 302,-240 302,-240 302,-246 296,-252 290,-252"/>
<text text-anchor="middle" x="227.5" y="-237" font-family="sans" font-size="10.00">index_and_filter_dicoms</text>
<text text-anchor="middle" x="227.5" y="-226" font-family="sans" font-size="10.00">DATASET_NAME: RADCURE</text>
</g>
<!-- 6&#45;&gt;5 -->
<g id="edge7" class="edge">
<title>6&#45;&gt;5</title>
<path fill="none" stroke="grey" stroke-width="2" d="M227.5,-215.7C227.5,-207.98 227.5,-198.71 227.5,-190.11"/>
<polygon fill="grey" stroke="grey" stroke-width="2" points="231,-190.1 227.5,-180.1 224,-190.1 231,-190.1"/>
</g>
<!-- 7 -->
<g id="node8" class="node">
<title>7</title>
<path fill="none" stroke="#d8ac56" stroke-width="2" d="M389,-108C389,-108 328,-108 328,-108 322,-108 316,-102 316,-96 316,-96 316,-84 316,-84 316,-78 322,-72 328,-72 328,-72 389,-72 389,-72 395,-72 401,-78 401,-84 401,-84 401,-96 401,-96 401,-102 395,-108 389,-108"/>
<text text-anchor="middle" x="358.5" y="-87.5" font-family="sans" font-size="10.00">cropped_niftis</text>
</g>
<!-- 7&#45;&gt;0 -->
<g id="edge3" class="edge">
<title>7&#45;&gt;0</title>
<path fill="none" stroke="grey" stroke-width="2" d="M326.45,-71.88C307.49,-61.74 283.41,-48.88 263.76,-38.37"/>
<polygon fill="grey" stroke="grey" stroke-width="2" points="265.26,-35.21 254.79,-33.58 261.96,-41.38 265.26,-35.21"/>
</g>
<!-- 8 -->
<g id="node9" class="node">
<title>8</title>
<path fill="none" stroke="#56d8a9" stroke-width="2" d="M420,-180C420,-180 355,-180 355,-180 349,-180 343,-174 343,-168 343,-168 343,-156 343,-156 343,-150 349,-144 355,-144 355,-144 420,-144 420,-144 426,-144 432,-150 432,-156 432,-156 432,-168 432,-168 432,-174 426,-180 420,-180"/>
<text text-anchor="middle" x="387.5" y="-159.5" font-family="sans" font-size="10.00">generate_niftis</text>
</g>
<!-- 8&#45;&gt;7 -->
<g id="edge8" class="edge">
<title>8&#45;&gt;7</title>
<path fill="none" stroke="grey" stroke-width="2" d="M380.33,-143.7C377.07,-135.81 373.13,-126.3 369.5,-117.55"/>
<polygon fill="grey" stroke="grey" stroke-width="2" points="372.65,-116 365.59,-108.1 366.18,-118.68 372.65,-116"/>
</g>
<!-- 9 -->
<g id="node10" class="node">
<title>9</title>
<path fill="none" stroke="#56a9d8" stroke-width="2" d="M549.5,-252C549.5,-252 331.5,-252 331.5,-252 325.5,-252 319.5,-246 319.5,-240 319.5,-240 319.5,-228 319.5,-228 319.5,-222 325.5,-216 331.5,-216 331.5,-216 549.5,-216 549.5,-216 555.5,-216 561.5,-222 561.5,-228 561.5,-228 561.5,-240 561.5,-240 561.5,-246 555.5,-252 549.5,-252"/>
<text text-anchor="middle" x="440.5" y="-237" font-family="sans" font-size="10.00">index_and_filter_dicoms</text>
<text text-anchor="middle" x="440.5" y="-226" font-family="sans" font-size="10.00">DATASET_NAME: HEAD&#45;NECK&#45;RADIOMICS&#45;HN1</text>
</g>
<!-- 9&#45;&gt;8 -->
<g id="edge9" class="edge">
<title>9&#45;&gt;8</title>
<path fill="none" stroke="grey" stroke-width="2" d="M427.4,-215.7C421.11,-207.39 413.45,-197.28 406.54,-188.14"/>
<polygon fill="grey" stroke="grey" stroke-width="2" points="409.28,-185.96 400.45,-180.1 403.7,-190.19 409.28,-185.96"/>
</g>
</g>
</svg>
