<?xml version="1.0" encoding="UTF-8" standalone="no"?>
<!DOCTYPE svg PUBLIC "-//W3C//DTD SVG 1.1//EN"
 "http://www.w3.org/Graphics/SVG/1.1/DTD/svg11.dtd">
<!-- Generated by graphviz version 2.43.0 (0)
 -->
<!-- Title: snakemake_dag Pages: 1 -->
<svg width="665pt" height="586pt"
 viewBox="0.00 0.00 665.00 586.00" xmlns="http://www.w3.org/2000/svg" xmlns:xlink="http://www.w3.org/1999/xlink">
<g id="graph0" class="graph" transform="scale(1 1) rotate(0) translate(4 582)">
<title>snakemake_dag</title>
<polygon fill="white" stroke="transparent" points="-4,4 -4,-582 661,-582 661,4 -4,4"/>
<!-- 0 -->
<g id="node1" class="node">
<title>0</title>
<text text-anchor="start" x="316.5" y="-107.6" font-family="sans" font-weight="bold" font-size="18.00">all</text>
<text text-anchor="start" x="220.5" y="-83.8" font-family="sans" font-size="10.00"> </text>
<text text-anchor="start" x="224.5" y="-83.8" font-family="sans" font-weight="bold" font-size="14.00">↪ input</text>
<text text-anchor="start" x="282.5" y="-83.8" font-family="sans" font-size="10.00"> </text>
<text text-anchor="start" x="220.5" y="-64" font-family="monospace" font-size="10.00">results/HEAD&#45;NECK&#45;RADIOMICS&#45;HN1.done</text>
<text text-anchor="start" x="220.5" y="-46" font-family="monospace" font-size="10.00">results/HNSCC.done</text>
<text text-anchor="start" x="220.5" y="-28" font-family="monospace" font-size="10.00">results/RADCURE.done</text>
<text text-anchor="start" x="430.5" y="-10" font-family="sans" font-size="10.00"> &#160;</text>
<polygon fill="#d95757" stroke="#d95757" points="214.5,-98 214.5,-98 444.5,-98 444.5,-98 214.5,-98"/>
<polygon fill="#d95757" stroke="#d95757" points="214.5,-22 214.5,-22 444.5,-22 444.5,-22 214.5,-22"/>
<polygon fill="none" stroke="#d95757" stroke-width="2" points="214,-1 214,-127 443,-127 443,-1 214,-1"/>
</g>
<!-- 1 -->
<g id="node2" class="node">
<title>1</title>
<text text-anchor="start" x="258" y="-257.6" font-family="sans" font-weight="bold" font-size="18.00">cropped_niftis</text>
<text text-anchor="start" x="247.5" y="-233.8" font-family="sans" font-size="10.00"> </text>
<text text-anchor="start" x="251.5" y="-233.8" font-family="sans" font-weight="bold" font-size="14.00">↪ input</text>
<text text-anchor="start" x="309.5" y="-233.8" font-family="sans" font-size="10.00"> </text>
<text text-anchor="start" x="247.5" y="-214" font-family="monospace" font-size="10.00">&lt;input function&gt;</text>
<text text-anchor="start" x="332.5" y="-193.8" font-family="sans" font-size="10.00"> </text>
<text text-anchor="start" x="336.5" y="-193.8" font-family="sans" font-weight="bold" font-size="14.00">output →</text>
<text text-anchor="start" x="406.5" y="-193.8" font-family="sans" font-size="10.00"> </text>
<text text-anchor="start" x="247.5" y="-174" font-family="monospace" font-size="10.00">results/{DATASET_NAME}.done</text>
<polygon fill="#d9ad57" stroke="#d9ad57" points="241.5,-248 241.5,-248 417.5,-248 417.5,-248 241.5,-248"/>
<polygon fill="#d9ad57" stroke="#d9ad57" points="241.5,-208 241.5,-208 417.5,-208 417.5,-208 241.5,-208"/>
<polygon fill="none" stroke="#d9ad57" stroke-width="2" points="241,-165 241,-277 416,-277 416,-165 241,-165"/>
</g>
<!-- 1&#45;&gt;0 -->
<g id="edge1" class="edge">
<title>1&#45;&gt;0</title>
<path fill="none" stroke="grey" stroke-width="2" d="M328.5,-163.6C328.5,-155.42 328.5,-146.89 328.5,-138.43"/>
<polygon fill="grey" stroke="grey" stroke-width="2" points="332,-138.17 328.5,-128.17 325,-138.17 332,-138.17"/>
</g>
<!-- 2 -->
<g id="node3" class="node">
<title>2</title>
<text text-anchor="start" x="253.5" y="-407.6" font-family="sans" font-weight="bold" font-size="18.00">generate_niftis</text>
<text text-anchor="start" x="7.5" y="-383.8" font-family="sans" font-size="10.00"> </text>
<text text-anchor="start" x="11.5" y="-383.8" font-family="sans" font-weight="bold" font-size="14.00">↪ input</text>
<text text-anchor="start" x="69.5" y="-383.8" font-family="sans" font-size="10.00"> </text>
<text text-anchor="start" x="7.5" y="-364" font-family="monospace" font-size="10.00">&lt;input function&gt;</text>
<text text-anchor="start" x="572.5" y="-343.8" font-family="sans" font-size="10.00"> </text>
<text text-anchor="start" x="576.5" y="-343.8" font-family="sans" font-weight="bold" font-size="14.00">output →</text>
<text text-anchor="start" x="646.5" y="-343.8" font-family="sans" font-size="10.00"> </text>
<text text-anchor="start" x="7.5" y="-324" font-family="monospace" font-size="10.00">/home/bioinf/bhklab/radiomics/readii&#45;negative&#45;controls/rawdata/{DATASET_NAME}/images/.imgtools/nifti_ds.csv</text>
<polygon fill="#57d9ad" stroke="#57d9ad" points="1.5,-398 1.5,-398 657.5,-398 657.5,-398 1.5,-398"/>
<polygon fill="#57d9ad" stroke="#57d9ad" points="1.5,-358 1.5,-358 657.5,-358 657.5,-358 1.5,-358"/>
<polygon fill="none" stroke="#57d9ad" stroke-width="2" points="1,-315 1,-427 656,-427 656,-315 1,-315"/>
</g>
<!-- 2&#45;&gt;1 -->
<g id="edge2" class="edge">
<title>2&#45;&gt;1</title>
<path fill="none" stroke="grey" stroke-width="2" d="M328.5,-313.63C328.5,-305.38 328.5,-296.82 328.5,-288.4"/>
<polygon fill="grey" stroke="grey" stroke-width="2" points="332,-288.22 328.5,-278.22 325,-288.22 332,-288.22"/>
</g>
<!-- 3 -->
<g id="node4" class="node">
<title>3</title>
<text text-anchor="start" x="209.5" y="-557.6" font-family="sans" font-weight="bold" font-size="18.00">index_and_filter_dicoms</text>
<text text-anchor="start" x="25.5" y="-533.8" font-family="sans" font-size="10.00"> </text>
<text text-anchor="start" x="29.5" y="-533.8" font-family="sans" font-weight="bold" font-size="14.00">↪ input</text>
<text text-anchor="start" x="87.5" y="-533.8" font-family="sans" font-size="10.00"> </text>
<text text-anchor="start" x="25.5" y="-514" font-family="monospace" font-size="10.00">/home/bioinf/bhklab/radiomics/readii&#45;negative&#45;controls/rawdata/{DATASET_NAME}/images/dicoms</text>
<text text-anchor="start" x="554.5" y="-493.8" font-family="sans" font-size="10.00"> </text>
<text text-anchor="start" x="558.5" y="-493.8" font-family="sans" font-weight="bold" font-size="14.00">output →</text>
<text text-anchor="start" x="628.5" y="-493.8" font-family="sans" font-size="10.00"> </text>
<text text-anchor="start" x="25.5" y="-474" font-family="monospace" font-size="10.00">/home/bioinf/bhklab/radiomics/readii&#45;negative&#45;controls/rawdata/{DATASET_NAME}/images/.imgtools/ds.csv</text>
<polygon fill="#57add9" stroke="#57add9" points="19.5,-548 19.5,-548 639.5,-548 639.5,-548 19.5,-548"/>
<polygon fill="#57add9" stroke="#57add9" points="19.5,-508 19.5,-508 639.5,-508 639.5,-508 19.5,-508"/>
<polygon fill="none" stroke="#57add9" stroke-width="2" points="19,-465 19,-577 638,-577 638,-465 19,-465"/>
</g>
<!-- 3&#45;&gt;2 -->
<g id="edge3" class="edge">
<title>3&#45;&gt;2</title>
<path fill="none" stroke="grey" stroke-width="2" d="M328.5,-463.63C328.5,-455.38 328.5,-446.82 328.5,-438.4"/>
<polygon fill="grey" stroke="grey" stroke-width="2" points="332,-438.22 328.5,-428.22 325,-438.22 332,-438.22"/>
</g>
</g>
</svg>
