<?xml version="1.0" encoding="UTF-8" standalone="no"?>
<!DOCTYPE svg PUBLIC "-//W3C//DTD SVG 1.1//EN"
 "http://www.w3.org/Graphics/SVG/1.1/DTD/svg11.dtd">
<!-- Generated by graphviz version 2.43.0 (0)
 -->
<!-- Title: snakemake_dag Pages: 1 -->
<svg width="143pt" height="260pt"
 viewBox="0.00 0.00 143.00 260.00" xmlns="http://www.w3.org/2000/svg" xmlns:xlink="http://www.w3.org/1999/xlink">
<g id="graph0" class="graph" transform="scale(1 1) rotate(0) translate(4 256)">
<title>snakemake_dag</title>
<polygon fill="white" stroke="transparent" points="-4,4 -4,-256 139,-256 139,4 -4,4"/>
<!-- 0 -->
<g id="node1" class="node">
<title>0</title>
<path fill="none" stroke="#d85656" stroke-width="2" d="M82.5,-36C82.5,-36 52.5,-36 52.5,-36 46.5,-36 40.5,-30 40.5,-24 40.5,-24 40.5,-12 40.5,-12 40.5,-6 46.5,0 52.5,0 52.5,0 82.5,0 82.5,0 88.5,0 94.5,-6 94.5,-12 94.5,-12 94.5,-24 94.5,-24 94.5,-30 88.5,-36 82.5,-36"/>
<text text-anchor="middle" x="67.5" y="-15.5" font-family="sans" font-size="10.00">all</text>
</g>
<!-- 1 -->
<g id="node2" class="node">
<title>1</title>
<path fill="none" stroke="#d8ac56" stroke-width="2" d="M98,-108C98,-108 37,-108 37,-108 31,-108 25,-102 25,-96 25,-96 25,-84 25,-84 25,-78 31,-72 37,-72 37,-72 98,-72 98,-72 104,-72 110,-78 110,-84 110,-84 110,-96 110,-96 110,-102 104,-108 98,-108"/>
<text text-anchor="middle" x="67.5" y="-87.5" font-family="sans" font-size="10.00">cropped_niftis</text>
</g>
<!-- 1&#45;&gt;0 -->
<g id="edge1" class="edge">
<title>1&#45;&gt;0</title>
<path fill="none" stroke="grey" stroke-width="2" d="M67.5,-71.7C67.5,-63.98 67.5,-54.71 67.5,-46.11"/>
<polygon fill="grey" stroke="grey" stroke-width="2" points="71,-46.1 67.5,-36.1 64,-46.1 71,-46.1"/>
</g>
<!-- 2 -->
<g id="node3" class="node">
<title>2</title>
<path fill="none" stroke="#56d8a9" stroke-width="2" d="M100,-180C100,-180 35,-180 35,-180 29,-180 23,-174 23,-168 23,-168 23,-156 23,-156 23,-150 29,-144 35,-144 35,-144 100,-144 100,-144 106,-144 112,-150 112,-156 112,-156 112,-168 112,-168 112,-174 106,-180 100,-180"/>
<text text-anchor="middle" x="67.5" y="-159.5" font-family="sans" font-size="10.00">generate_niftis</text>
</g>
<!-- 2&#45;&gt;1 -->
<g id="edge2" class="edge">
<title>2&#45;&gt;1</title>
<path fill="none" stroke="grey" stroke-width="2" d="M67.5,-143.7C67.5,-135.98 67.5,-126.71 67.5,-118.11"/>
<polygon fill="grey" stroke="grey" stroke-width="2" points="71,-118.1 67.5,-108.1 64,-118.1 71,-118.1"/>
</g>
<!-- 3 -->
<g id="node4" class="node">
<title>3</title>
<path fill="none" stroke="#56a9d8" stroke-width="2" d="M123,-252C123,-252 12,-252 12,-252 6,-252 0,-246 0,-240 0,-240 0,-228 0,-228 0,-222 6,-216 12,-216 12,-216 123,-216 123,-216 129,-216 135,-222 135,-228 135,-228 135,-240 135,-240 135,-246 129,-252 123,-252"/>
<text text-anchor="middle" x="67.5" y="-231.5" font-family="sans" font-size="10.00">index_and_filter_dicoms</text>
</g>
<!-- 3&#45;&gt;2 -->
<g id="edge3" class="edge">
<title>3&#45;&gt;2</title>
<path fill="none" stroke="grey" stroke-width="2" d="M67.5,-215.7C67.5,-207.98 67.5,-198.71 67.5,-190.11"/>
<polygon fill="grey" stroke="grey" stroke-width="2" points="71,-190.1 67.5,-180.1 64,-190.1 71,-190.1"/>
</g>
</g>
</svg>
